<?xml version="1.0" encoding="utf-8" ?><svg xmlns="http://www.w3.org/2000/svg" xmlns:xlink="http://www.w3.org/1999/xlink" width="2042" height="512" viewBox="0 0 2042 512"><path fill="#0D152E" d="M833.685 401.7C816.394 417.753 795.418 429.315 772.604 435.367C732.886 446.12 688.379 439.818 652.778 419.366C619.11 400.137 594.498 368.3 584.385 330.897C573.894 291.811 579.365 250.162 599.597 215.104C621.041 177.886 656.348 150.651 697.816 139.341C763.699 121.726 834.189 148.472 852.64 218.115C888.47 194.762 931.942 190.156 971.946 205.641C998.111 192.658 1018.51 193.424 1042.32 211.547C1066.14 192.213 1089.37 194.128 1115.79 205.908C1161.44 186.988 1208.65 198.519 1242.95 233.198C1243.81 231.017 1244.69 228.85 1245.61 226.696C1260.94 191.466 1322.49 183.799 1346.79 218.892C1360.21 238.269 1347.67 319.502 1356.53 323.238C1362.56 306.081 1353.66 261.46 1358.93 239.019C1367.78 201.309 1398.29 193.294 1432.41 198.329C1449.12 200.796 1459.73 211.214 1468.39 224.228C1469.12 165.879 1496.26 135.283 1556.7 136.483C1577.25 136.891 1596.13 135.163 1616.92 138.939C1627.5 140.84 1637.76 144.223 1647.39 148.988C1674.5 162.4 1691.55 184.626 1701.12 213C1719.88 195.23 1741.36 194.696 1763.51 206.026C1793.47 189.795 1822.42 197.315 1841.16 225.836C1888.77 191.788 1945.42 189.299 1993.34 224.354C2025.23 247.682 2036.14 274.37 2042 312.002L2042 327.16C2039.46 343.255 2036.78 359.612 2028.76 374.075C1983.88 455.086 1871.79 464.619 1816.66 388.493C1808.54 377.285 1802.34 364.807 1798.31 351.569C1796.18 344.476 1794.54 336.845 1791.66 330.119C1788.71 356.523 1796.15 395.726 1782.08 418.292C1764.4 446.663 1710.14 448.154 1690.86 420.533C1687.73 416.276 1685.4 412.173 1683.03 407.382C1647.19 442.33 1608.28 441.833 1560.93 441.145C1527.2 440.655 1493.88 445.542 1473.38 411.907C1463.6 476.816 1426.48 502.161 1363.91 512L1338.4 512C1337.19 511.695 1335.47 511.45 1334.19 511.324C1294.7 507.405 1242.04 484.699 1250.56 436.018C1253.2 420.938 1260.63 412.752 1272.62 404.25C1265.61 397.863 1261.94 392.214 1256.94 384.323C1230.79 426.454 1186.83 438.739 1140.14 438.174C1140.98 455.723 1139.27 471.9 1125.37 484.764C1103.01 505.456 1060.56 506.171 1039.18 483.731C1024.54 468.364 1025.85 445.6 1026.68 425.976C1004.61 437.04 993.051 438.83 970.665 426.542C935.305 446.215 884.097 441.393 851.945 417.304C845.52 412.49 839.614 407.103 833.685 401.7Z"/><path fill="#FEFEFE" d="M1542.99 167.742C1555.83 166.721 1572.17 167.415 1585.29 167.274C1610.74 166.998 1634.04 171.958 1652.42 190.922C1666.29 205.204 1673.95 224.378 1673.74 244.274C1673.35 264.029 1666.05 277.033 1652.35 290.227C1676.39 302.131 1680.36 327.702 1676.51 351.67C1672.93 373.932 1662.44 389.292 1643.84 401.64C1634.46 406.512 1619.98 411.176 1608.85 411.699C1582.44 412.942 1551.1 413.964 1524.8 411.842C1518.98 411.373 1512.44 407.786 1507.98 404.646C1502.24 400.613 1499.62 387.838 1499.34 380.918C1498.2 352.151 1498.79 322.22 1498.74 293.342L1498.65 239.12C1498.61 201.402 1495.67 171.711 1542.99 167.742Z"/><path fill="#0D152E" d="M1555.31 312.147C1571.22 311.594 1598.08 308.519 1611.32 319.328C1615.82 322.996 1618.29 328.025 1618.87 333.757C1619.72 342.189 1616.53 349.234 1611.3 355.635C1595.92 365.969 1572.91 362.884 1555.3 362.541L1555.31 312.147Z"/><path fill="#0D152E" d="M1555.37 220.34C1578.97 219.843 1639.13 218.16 1609.55 259.524C1594.17 268.171 1572.68 265.941 1555.37 265.39C1555.19 250.473 1555.36 235.28 1555.37 220.34Z"/><path fill="#FEFEFE" d="M1109.16 238.746C1139.25 221.555 1178.47 222.862 1207.28 242.213C1227.22 255.739 1240.93 276.648 1245.39 300.308C1250.14 325.292 1244.79 351.14 1230.52 372.196C1215.29 394.586 1193.32 406.255 1167.23 411.22C1143.1 413.282 1130.62 410.261 1107.96 402.111C1107.47 420.597 1110.05 438.018 1107.86 456.427C1105.05 480.029 1060.1 478.222 1057.41 457.526C1055.47 442.647 1055.96 426.935 1055.99 411.849L1055.98 347.868L1055.96 282.437C1055.95 270.505 1055.56 258.167 1056.42 246.295C1057.29 234.222 1065.67 229.147 1076.5 227.4C1090.87 226.342 1098.16 231.005 1109.16 238.746Z"/><path fill="#0D152E" d="M1141.47 280.44C1163.25 275.908 1184.57 289.93 1189.01 311.709C1193.45 333.487 1179.32 354.723 1157.5 359.065C1135.82 363.381 1114.72 349.372 1110.31 327.726C1105.89 306.081 1119.82 284.943 1141.47 280.44Z"/><path fill="#FEFEFE" d="M912.095 226.501C933.953 223.381 955.028 230.106 973.338 241.673C974.277 240.647 975.231 239.633 976.198 238.634C987.007 227.489 1006.17 221.247 1018.86 232.946C1025.59 239.151 1025.16 247.938 1025.22 256.404C1025.48 290.297 1025.3 324.205 1025.3 358.1C1024.94 370.851 1027.18 389.858 1016.28 399.31C999.418 413.937 983.783 404.351 971.304 392.004C967.068 396.255 965.012 398.24 960.113 401.886C931.822 418.929 890.024 413.17 864.426 393.563C824.163 362.726 817.42 299.553 848.565 260.038C865.503 238.547 885.5 229.738 912.095 226.501Z"/><path fill="#0D152E" d="M921.18 280.401C943.352 277.204 963.92 292.571 967.118 314.722C970.315 336.873 954.932 357.419 932.759 360.612C910.589 363.804 890.026 348.438 886.829 326.29C883.632 304.142 899.011 283.597 921.18 280.401Z"/><path fill="#FEFEFE" d="M1288.99 226.53C1330.17 223.702 1321.58 247.703 1322.64 278.163C1323.38 299.637 1317.71 328.64 1329.18 347.536C1336.33 359.327 1365.58 360.174 1375.67 351.808C1388.87 342.11 1387.01 326.592 1388.85 313.168C1392.05 289.782 1373.54 225.793 1412.49 226.567C1432.06 226.956 1440.99 233.118 1441.42 252.55C1442.38 296.167 1441.61 339.613 1441.81 383.226C1441.89 423.686 1440.48 446.952 1405.52 470.767C1387.64 479.916 1366.52 483.599 1346.63 483.253C1323.22 482.846 1277.65 476.502 1278.38 445.05C1278.91 423.728 1298.57 422.253 1315.03 427.461C1331.68 432.732 1354.08 434.77 1370.33 427.215C1387.94 419.026 1389.68 402.438 1390.02 385.354C1382.29 393.19 1373.77 399.768 1363.04 402.95C1345.54 408.142 1323.25 406.187 1307.15 397.523C1290.55 388.588 1279.96 372.968 1274.68 355.169C1272.48 347.739 1271.42 340.116 1270.88 332.401C1269.97 319.467 1269.42 243.223 1273.32 236.258C1276.51 230.535 1283.03 228.184 1288.99 226.53Z"/><path fill="#FEFEFE" d="M1911.71 226.678C1963.81 223.716 2008.42 263.6 2011.22 315.664C2014.03 367.728 1973.97 412.168 1921.85 414.816C1869.95 417.454 1825.7 377.643 1822.9 325.8C1820.11 273.957 1859.82 229.627 1911.71 226.678Z"/><path fill="#0D152E" d="M1911.58 284.369C1932.9 281.601 1952.44 296.59 1955.27 317.884C1958.11 339.177 1943.16 358.746 1921.85 361.637C1900.46 364.541 1880.77 349.533 1877.93 328.152C1875.09 306.771 1890.17 287.148 1911.58 284.369Z"/><path fill="#FEFEFE" d="M719.586 164.705C739.128 160.778 764.691 166.881 782.393 175.017C805.55 185.66 840.427 222.113 806.371 241.405C788.468 251.547 768.777 232.823 750.449 227.788C737.955 224.439 724.761 224.746 712.436 228.672C696.482 233.945 683.274 245.327 675.712 260.319C645.89 318.719 705.87 373.656 762.858 350.681C781.42 343.198 788.94 331.932 810.248 342.894C857.703 389.432 729.565 444.463 653.971 386.706C629.496 368.126 613.492 340.524 609.537 310.07C604.917 276.097 613.938 241.679 634.63 214.328C656.383 185.938 684.161 169.403 719.586 164.705Z"/><path fill="#FEFEFE" d="M1789.97 228.47C1791.89 228.498 1793.82 228.554 1795.73 228.786C1802.39 229.598 1809.76 232.529 1813.94 237.997C1818.76 244.305 1819.67 253.155 1818.61 260.795C1815.27 284.93 1787.22 278.177 1772.18 289.808C1768.69 292.504 1765.37 296.384 1763.82 300.54C1756.25 320.743 1763.89 366.309 1760.79 390.637C1759.9 397.599 1757.46 404.624 1751.65 408.983C1744.09 414.653 1734.79 413.455 1726.07 412.143C1721.63 410.832 1717.43 408.945 1714.1 405.63C1705.45 397.023 1707.7 361.736 1707.65 349.624L1707.78 288.218C1707.8 277.949 1707.3 256.182 1709.37 246.983C1710.38 242.54 1712.61 238.468 1715.81 235.23C1729.09 222.077 1749.29 229.842 1760.78 241.611C1771.31 232.157 1776.04 230.132 1789.97 228.47Z"/><path d="M268.56 0L282.031 0C293.511 4.54635 300.93 9.1726 307.695 20.2409C316.509 18.4734 331.557 14.3472 339.162 19.6141C341.197 20.9975 342.568 23.1613 342.949 25.5911C343.346 28.173 342.565 33.4432 342.152 36.1069C351.836 39.561 366.668 39.7633 379.002 44.1137C422.122 59.3227 478.115 81.5993 501.769 122.744C516.305 152.701 513.97 204.772 502.68 235.597C494.203 258.74 481.405 274.595 458.883 285.26C453.147 287.942 447.205 290.161 441.114 291.894C456.153 320.905 458.378 335.769 445.313 366.129C457.702 384.365 487.22 422.55 481.651 443.565C470.969 483.879 404.624 502.016 368.882 508.001C359.727 509.533 345.276 509.613 337.766 512L277.335 512C269.36 509.363 241.536 507.883 230.28 506.08C190.612 499.67 152.03 487.778 115.643 470.745C93.751 460.525 42.4269 435.26 33.0023 412.462C30.1317 405.519 33.1985 397.011 36.3348 390.52C16.0591 374.945 0.513104 359.002 0.644959 331.418C0.759989 307.353 11.3318 290.566 27.9596 274.013C25.342 254.556 28.4261 237.023 40.1992 220.846C51.8407 205.12 69.2597 194.659 88.6227 191.767C100.537 152.03 113.858 122.945 137.727 88.7361C128.686 75.3046 123.365 60.5687 126.105 44.0766C127.995 31.9912 134.668 21.172 144.623 14.0519C152.999 7.96317 163.505 5.56869 173.695 7.42644C191.199 10.5201 201.609 21.7409 211.132 35.3961C219.491 31.8196 227.108 30.0017 236.001 28.4352C244.261 13.4407 252.404 5.86727 268.56 0Z"/><path fill="#FEA561" d="M156.108 20.8855C181.487 12.3811 198.31 33.8296 209.129 53.5371C211.002 56.2318 212.775 59.7626 216.336 58.4688C217.492 55.9123 216.481 53.5199 215.736 50.7964L215.806 47.5684C225.1 38.7723 274.259 37.3978 289.232 35.4483C304.051 33.3797 318.816 30.9419 333.514 28.1373C324.652 38.7011 321.206 40.2989 309.385 47.076C327.752 47.1102 343.881 48.5549 362 51.9058C391.992 57.4525 451.725 84.5146 473.745 106.293C474.038 106.584 474.325 106.882 474.604 107.187C478.468 109.848 483.574 115.592 486.366 119.467C505.737 147.658 486.649 153.071 491.923 163.482C496.104 165.05 495.277 161.434 498.514 163.859C503.016 179.73 498.112 209.326 494.163 225.255C484.358 264.795 454.188 278.903 416.901 284.634C399.578 286.714 382.115 287.381 364.684 286.629C355.202 286.207 345.175 285.306 335.652 285.014C333.075 284.935 332.775 285.779 331.163 287.407C330.422 291.602 330.347 290.026 331.809 294.015C333.825 295.72 334.301 296.231 336.829 296.872C354.403 298.238 369.718 299.427 387.399 299.063C403.666 328.243 403.615 339.833 379.319 363.946C367.469 375.542 355.513 387.031 343.455 398.412C305.089 368.046 252.575 342.063 208.707 321.008C179.342 307.718 120.576 281.333 97.4891 259.896L90.0202 253.465C94.208 199.935 115.905 140.548 147.299 97.3602C151.346 99.7087 154.107 100.91 158.434 102.733C163.298 103.627 165.013 103.868 169.939 103.782L171.049 102.405C170.206 100.227 161.199 95.0316 158.607 92.7895C136.109 73.3265 126.601 39.4655 156.108 20.8855Z"/><path fill="#F28A4B" d="M401.399 232.035L402.366 231.692C403.428 229.216 403.448 227.018 403.814 224.349C407.989 193.937 402.084 147.217 429.812 126.662C445.789 114.818 468.202 116.401 486.366 119.467C505.737 147.658 486.649 153.071 491.923 163.482C496.104 165.05 495.277 161.434 498.514 163.859C503.016 179.73 498.112 209.326 494.163 225.255C484.358 264.795 454.188 278.903 416.901 284.634C414.617 277.226 400.437 265.389 399.175 251.007C397.017 245.825 393.094 241.023 395.206 235.285C398.13 232.338 397.204 233.146 401.399 232.035Z"/><path d="M475.166 198.101C475.529 209.397 475.641 218.74 471.999 229.617C465.872 247.912 449.17 264.097 429.049 264.578C419.065 264.837 409.398 261.067 402.23 254.119C401.187 253.107 400.168 252.069 399.175 251.007C397.017 245.825 393.094 241.023 395.206 235.285C398.13 232.338 397.204 233.146 401.399 232.035C404.227 240.033 408.192 249.72 416.813 252.687C454.051 265.506 468.82 223.731 475.166 198.101Z"/><path d="M442.4 147.132C455.114 147.239 473.922 161.759 461.483 172.648C448.831 171.406 429.231 161.033 442.4 147.132Z"/><path fill="#F28A4B" d="M90.0202 253.465C94.208 199.935 115.905 140.548 147.299 97.3602C151.346 99.7087 154.107 100.91 158.434 102.733C163.298 103.627 165.013 103.868 169.939 103.782C158.508 124.585 149.593 147.053 145.339 170.472C149.418 165.074 155.531 156.512 159.962 151.802C152.883 176.601 145.755 210.423 150.021 236.122C155.02 227.919 157.005 220.32 161.383 212.553C161.287 249.803 169.294 271.364 192.296 302.121C195.475 306.372 207.047 317.497 208.707 321.008C179.342 307.718 120.576 281.333 97.4891 259.896L90.0202 253.465Z"/><path fill="#FEA561" d="M90.0202 253.465C94.208 199.935 115.905 140.548 147.299 97.3602C151.346 99.7087 154.107 100.91 158.434 102.733C130.3 141.568 115.391 177.506 104.081 223.746C102.858 228.744 98.942 257.593 97.4891 259.896L90.0202 253.465Z"/><path fill="#FECB8D" d="M215.736 50.7964L215.806 47.5684C225.1 38.7723 274.259 37.3978 289.232 35.4483C304.051 33.3797 318.816 30.9419 333.514 28.1373C324.652 38.7011 321.206 40.2989 309.385 47.076C327.752 47.1102 343.881 48.5549 362 51.9058C391.992 57.4525 451.725 84.5146 473.745 106.293C474.038 106.584 474.325 106.882 474.604 107.187C466.015 109.533 416.991 85.4247 405.501 80.8046C393.649 76.0943 381.614 71.8563 369.425 68.1007C317.008 52.0708 269.665 50.7395 215.736 50.7964Z"/><path fill="#F28A4B" d="M336.829 296.872C354.403 298.238 369.718 299.427 387.399 299.063C403.666 328.243 403.615 339.833 379.319 363.946C378.071 357.936 377.6 352.668 375.946 346.461C369.863 323.634 353.067 312.175 336.829 296.872Z"/><path fill="#FECB8D" d="M156.108 20.8855C181.487 12.3811 198.31 33.8296 209.129 53.5371C204.434 52.1175 164.969 26.1832 156.108 20.8855Z"/><path fill="#A44415" d="M174.1 86.7617C162.135 79.1603 149.752 57.1013 155.549 42.7236C157.359 38.2363 163.057 36.9443 167.227 39.3205C178.508 45.7486 182.265 57.1646 186.208 68.6391C187.27 70.774 193.37 80.923 193.43 81.8944L192.759 80.3077L191.123 81.3226C186.849 79.1049 182.858 77.0158 178.687 74.5772C179.72 82.3549 180.655 87.2197 182.531 94.8421L174.1 86.7617Z"/><path d="M174.1 86.7617C171.135 79.2608 167.75 71.984 171.743 64.1165C177.741 59.9419 181.676 64.4523 186.208 68.6391C187.27 70.774 193.37 80.923 193.43 81.8944L192.759 80.3077L191.123 81.3226C186.849 79.1049 182.858 77.0158 178.687 74.5772C179.72 82.3549 180.655 87.2197 182.531 94.8421L174.1 86.7617Z"/><path d="M281.781 110.718C284.965 110.48 288.421 110.248 291.601 110.418C300.16 110.943 308.166 114.816 313.887 121.197C318.098 125.919 322.656 133.876 316.826 138.949C309.275 140.318 304.205 130.748 293.337 126.232C274.755 122.492 267.713 143.268 256.557 139.275C255.746 137.486 255.995 136.636 256.338 134.788C258.803 121.497 269.855 114.806 281.781 110.718Z"/><defs><linearGradient id="gradient_0" gradientUnits="userSpaceOnUse" x1="245.69118" y1="494.69528" x2="280.20383" y2="274.11221"><stop offset="0" stop-color="#5065B0"/><stop offset="1" stop-color="#5B80CF"/></linearGradient></defs><path fill="url(#gradient_0)" d="M416.365 296.898L427.461 295.028C455.849 337.906 437.317 365.975 404.962 398.071L418.692 392.666C426.799 387.784 431.641 384.339 438.249 377.673L446.807 390.724C454.682 402.339 465.007 416.53 469.511 429.71C471.348 434.843 470.537 444.043 467.187 448.545C434.343 492.684 351.035 501.118 302.187 500.527C226.538 500.298 152.263 480.311 86.7317 442.551C76.7098 436.819 49.1706 420.523 45.1633 408.42C43.0436 402.017 51.4703 390.094 55.0284 384.337C60.7982 374.118 69.4533 361.442 76.2823 351.651C120.884 356.18 163.527 369.836 205.64 384.618C212.195 386.918 240.643 397.971 246.362 397.949C253.087 399.951 259.96 403.109 266.447 405.9C270.001 406.635 278.767 410.422 282.029 412.251C286.487 396.688 301.313 394.907 313.107 404.391C317.711 403.541 322.324 402.741 326.946 401.99C331.659 404.697 336.872 411.753 342.594 411.825C351.257 411.935 391.097 370.515 399.059 362.468C416.022 336.912 413.936 324.816 400.428 298.395C405.649 298.022 411.132 297.402 416.365 296.898Z"/><path d="M282.029 412.251C286.487 396.688 301.313 394.907 313.107 404.391C318.504 412.74 319.079 417.539 313.049 425.792L313.114 460.813C316.644 464.176 321.352 470.371 320.732 475.335C317.606 500.362 262.871 487.684 289.518 462.163C289.627 452.129 290.297 436.65 288.572 427.039C287.723 422.308 282.118 423.815 282.029 412.251Z"/><path fill="#88ABEC" d="M298.074 411.912C299.725 412.053 301.341 412.483 302.955 412.848C304.586 414.171 305.562 415.562 306.134 417.587C308.114 424.599 308.862 459.205 305.948 464.371C302.602 464.469 299.382 464.707 296.159 463.632C295.739 462.924 295.403 462.215 295.263 461.396C293.887 453.351 294.089 425.138 295.526 417.1C295.864 415.204 296.974 413.461 298.074 411.912Z"/><path fill="#2A519E" d="M288.972 467.265C296.735 470.703 300.909 469.021 308.969 468.496C311.771 468.313 312.993 468.619 315.07 470.44C316.175 473.494 315.309 476.552 314.73 479.639C314.341 480.013 313.921 480.317 313.497 480.647C313.215 480.867 312.946 481.09 312.649 481.292C309.307 483.559 300.785 484.513 296.876 483.703C293.853 483.076 290.608 481.546 288.963 478.819C286.884 475.37 288.117 470.9 288.972 467.265Z"/><path fill="#2A519E" d="M297.312 403.429C301.389 403.779 305.761 404.711 308.781 407.669C310.626 409.475 311.577 411.851 311.577 414.35C307.523 409.896 305.403 407.09 299.29 406.052C288.255 410.361 292.318 415.59 288.607 418.94C287.956 418.582 287.47 418.485 287.204 417.75C286.537 415.912 287.277 413.458 288.028 411.728C290.09 406.978 292.628 405.288 297.312 403.429Z"/><path fill="#2A519E" d="M76.2823 351.651C120.884 356.18 163.527 369.836 205.64 384.618C212.195 386.918 240.643 397.971 246.362 397.949C253.087 399.951 259.96 403.109 266.447 405.9C253.466 407.606 157.967 376.982 138.112 373.898C120.237 371.122 93.7574 366.115 75.226 372.311C70.0709 374.034 59.7969 381.142 55.0284 384.337C60.7982 374.118 69.4533 361.442 76.2823 351.651Z"/><path fill="#2A519E" d="M400.428 298.395C405.649 298.022 411.132 297.402 416.365 296.898C421.019 315.71 418.952 333.413 409.162 350.501C406.951 354.359 402.809 360.229 399.059 362.468C416.022 336.912 413.936 324.816 400.428 298.395Z"/><path fill="#2A519E" d="M438.249 377.673L446.807 390.724C435.242 390.546 430.009 391.408 418.692 392.666C426.799 387.784 431.641 384.339 438.249 377.673Z"/><path d="M380.206 397.626C385.854 397.404 391.1 398.847 395.399 402.601C398.461 405.276 400.342 408.865 400.58 412.944C400.905 418.494 398.345 421.926 394.847 425.93L394.884 458.751C396.235 459.905 397.772 460.822 399.035 462.084C401.592 464.64 402.65 469.211 402.656 472.707C402.662 476.179 401.702 479.292 399.197 481.776C396.245 484.702 393.123 485.261 389.107 485.28C385.648 485.38 382.133 485.528 378.675 485.402C374.393 485.247 370.025 483.505 367.108 480.271C365.487 478.473 364.735 476.129 364.867 473.726C365.183 468.016 367.914 464.011 372.018 460.279C371.881 451.617 374.054 434.462 371.346 426.636C369.981 422.692 366.554 419.85 365.229 415.725C364.309 412.859 364.095 409.798 365.586 407.067C368.389 401.93 374.867 399.121 380.206 397.626Z"/><path fill="#6285D4" d="M380.708 410.748L385.45 411.382C388.388 414.067 389.103 416.246 389.557 420.204C390.353 427.15 391.228 458.155 387.746 462.563C385.978 462.69 384.081 462.909 382.318 462.725C380.082 462.492 379.535 462.401 378.178 460.707C377.09 451.706 376.101 417.198 380.708 410.748Z"/><path fill="#2A519E" d="M394.745 465.444L396.407 465.846C397.305 467.764 398.11 469.573 398.003 471.74C397.891 473.981 397.155 475.827 395.439 477.317C389.639 482.354 379.761 480.501 372.773 479.978C372.247 479.224 371.774 478.434 371.358 477.613C370.168 475.266 369.26 472.31 370.087 469.747C375.286 465.163 386.652 469.233 394.745 465.444Z"/><path fill="#2A519E" d="M381.731 402.592C385.382 402.988 389.293 403.85 391.969 406.554C394.688 409.302 395.78 412.379 395.768 416.172L394.706 416.969C393.74 414.53 392.78 411.888 391.417 409.642C389.507 406.493 386.045 405.834 382.724 405.041C372.871 408.86 376.374 411.39 371.237 418.379L370.674 417.687C370.263 414.617 369.955 412.228 371.469 409.367C373.737 405.081 377.331 403.929 381.731 402.592Z"/><path fill="#6285D4" d="M70.0993 211.765C69.6575 216.947 69.0916 222.481 68.7735 227.638C58.2709 238.383 71.794 253.358 80.2117 261.119C120.091 297.886 173.938 317.016 221.979 340.798C256.62 357.603 290.057 376.778 322.053 398.186L326.946 401.99C322.324 402.741 317.711 403.541 313.107 404.391C301.313 394.907 286.487 396.688 282.029 412.251C278.767 410.422 270.001 406.635 266.447 405.9C259.96 403.109 253.087 399.951 246.362 397.949C240.157 395.484 232.568 391.393 226.415 388.474C178.014 365.516 131.704 346.283 78.073 340.533C72.2117 340.733 64.0096 340.092 60.0079 344.284C60.517 347.915 64.334 346.218 61.9648 350.599C57.3087 359.21 50.4506 367.017 45.1647 375.226L42.4097 378.821L40.3509 378.825C14.6418 360.68 4.83297 332.092 20.9039 302.944C23.5861 298.08 27.2052 290.496 32.4611 288.419C35.165 287.351 38.3876 289.21 41.8932 287.577C47.9839 279.004 26.2734 250.989 58.5986 219.445C62.7347 216.184 65.6454 214.433 70.0993 211.765Z"/><path fill="#88ABEC" d="M70.0993 211.765C69.6575 216.947 69.0916 222.481 68.7735 227.638C58.2709 238.383 71.794 253.358 80.2117 261.119C120.091 297.886 173.938 317.016 221.979 340.798C256.62 357.603 290.057 376.778 322.053 398.186C302.03 401.671 245.377 372.039 225.443 364.822C174.06 346.218 126.64 319.787 83.8299 285.936C75.6508 280.65 66.7231 278.522 59.3969 271.816C40.6726 254.675 59.3926 232.31 58.5986 219.445C62.7347 216.184 65.6454 214.433 70.0993 211.765Z"/><path fill="#2A519E" d="M45.1647 375.226C43.2077 370.3 41.8203 363.057 42.728 357.81C43.6484 352.193 46.854 347.207 51.5842 344.034C59.7677 338.46 68.8318 338.795 78.073 340.533C72.2117 340.733 64.0096 340.092 60.0079 344.284C60.517 347.915 64.334 346.218 61.9648 350.599C57.3087 359.21 50.4506 367.017 45.1647 375.226Z"/><path fill="#FEA561" d="M271.221 12.1521C282.71 12.061 286.065 14.874 294.258 22.1492L272.442 24.6013C265.453 25.006 258.03 25.7694 251.018 26.3737C257.784 18.9299 261.673 15.0855 271.221 12.1521Z"/><path fill="#2A519E" d="M70.0993 211.765C76.2502 208.772 79.023 208.02 85.5555 206.231C82.6283 217.801 80.0837 229.906 78.8213 241.787L68.7735 227.638C69.0916 222.481 69.6575 216.947 70.0993 211.765Z"/></svg>