<?xml version="1.0" encoding="utf-8" ?><svg xmlns="http://www.w3.org/2000/svg" xmlns:xlink="http://www.w3.org/1999/xlink" width="2042" height="512" viewBox="0 0 2042 512"><path fill="#0D152D" d="M835.443 399.931C818.725 416.215 798.133 427.982 775.607 434.123C736.018 445.082 691.631 438.951 656.005 418.718C622.168 399.615 597.344 367.831 587.023 330.396C576.388 291.345 581.691 249.675 601.769 214.525C622.676 177.59 657.476 150.52 698.443 139.322C764.878 121.325 833.978 149.105 852.821 218.636C888.894 194.648 931.795 189.9 972.318 205.819C998.299 192.529 1019.42 193.343 1042.92 212.125C1066.65 191.879 1089.44 194.055 1115.97 205.988C1163.32 186.683 1209.59 198.797 1244.61 234.963C1249.07 221.414 1254.16 212.331 1266.94 204.543C1280.04 196.561 1302.9 194.064 1317.66 198.259C1353.7 208.503 1353.91 235.75 1353.58 266.016L1353.12 303.901C1353.07 309.63 1351.54 322.098 1357.9 323.637C1362.46 318.256 1359.82 266.675 1359.81 254.478C1359.76 206.783 1394.05 189.825 1436.65 199.301C1452.79 202.891 1462.57 214.238 1470.75 228.687C1469.62 168.086 1495.78 134.416 1558.29 136.448C1578.23 137.096 1595.96 135.244 1616.42 138.845C1626.57 140.619 1636.44 143.757 1645.74 148.173C1674.75 161.955 1690.97 184.213 1701.51 213.913C1720.42 194.868 1741.24 194.501 1763.85 206.202C1794.2 189.42 1822.59 197.621 1841.49 226.327C1851.92 218.856 1860 213.994 1871.4 208.953C1929.31 183.342 2000.43 210.246 2029.07 266.067C2036.82 281.17 2039.42 295.422 2042 312.002L2042 327.16C2038.53 348.727 2035.58 365.517 2022.95 383.991C1967.85 464.615 1851.59 455.542 1807.82 368.905C1804.09 361.531 1796.45 332.621 1792.42 329.967C1786.37 346.85 1795.45 387.038 1787.35 407.934C1772.51 446.235 1718.73 449.409 1693.74 420.026C1690.07 415.706 1687.66 410.449 1685.12 405.252C1648.51 442.068 1611.56 440.663 1562.51 440.048C1525.4 439.582 1495.38 444.623 1473.94 407.242C1469.41 442.758 1460.74 464.909 1431.24 487.768C1388.99 520.506 1294.35 520.809 1261.49 474.033C1253.41 462.587 1250.33 448.357 1252.95 434.6C1255.6 420.036 1263.51 411.221 1275.19 403.191C1267.36 395.79 1263.94 390.786 1258.55 381.51C1231.37 426.595 1189.62 437.927 1140.12 437.034C1140.26 440.471 1140.34 443.91 1140.36 447.349C1140.47 499.277 1077.31 514.449 1042.99 483.915C1026.64 469.373 1028.79 444.687 1028.97 424.483C1008.32 436.746 993.759 437.026 972.87 425.326C937.26 445.539 885.427 440.134 853.272 415.394C847 410.568 841.254 405.29 835.443 399.931Z"/><path fill="#8B88A1" d="M1544.64 166.75C1559.72 165.821 1576.36 166.298 1591.55 166.309C1615.83 166.327 1638.09 172.181 1655.35 190.338C1669.14 204.791 1676.64 224.103 1676.22 244.061C1675.69 262.889 1668.34 276.372 1654.97 289.049C1678.94 303.286 1683.02 325.022 1678.94 350.917C1675.54 372.46 1665.58 387.106 1647.78 399.695C1616.8 416.529 1587.29 410.257 1554.32 411.879C1497.85 414.658 1501.33 395.119 1501.33 348.985L1501.32 292.804L1501.21 239.008C1501.15 202.036 1497.56 171.025 1544.64 166.75Z"/><path fill="#0D152D" d="M1557.53 311.023C1574.7 310.617 1617.55 305.812 1621.05 330.681C1622.41 340.35 1619.67 347.085 1613.81 354.706C1598.54 364.4 1575.42 361.855 1557.55 361.518L1557.53 311.023Z"/><path fill="#0D152D" d="M1557.56 219.291C1574.27 218.934 1597.12 216.896 1611.6 226.263C1624.3 234.483 1619.55 248.153 1612.02 258.408C1596.48 267.228 1575.19 264.914 1557.63 264.305L1557.56 219.291Z"/><path fill="#FEAC5C" d="M1159.13 225.526C1170.16 226.139 1178.93 227.431 1189.49 231.065C1211.68 238.621 1229.9 254.771 1240.06 275.884C1251.11 298.51 1252.65 324.614 1244.33 348.38C1227.52 396.195 1179.21 420.354 1130.34 407.505C1123.48 405.701 1117.3 403.562 1110.61 401.19C1110.33 412.312 1110.49 423.44 1111.1 434.548C1114.15 465.449 1101.26 481.575 1066.23 467.231C1055.93 463.017 1058.34 430.393 1058.41 419.046L1058.64 362.732L1058.49 288.592C1058.44 275.077 1054.89 239.932 1066.13 230.962C1079.71 220.121 1099.03 228.541 1111.59 237.652C1128.73 227.753 1139.87 227.003 1159.13 225.526Z"/><path fill="#0D152D" d="M1143.84 279.425C1165.6 274.832 1186.94 288.783 1191.45 310.536C1195.95 332.29 1181.9 353.556 1160.1 357.961C1138.44 362.339 1117.31 348.401 1112.84 326.78C1108.36 305.159 1122.22 283.991 1143.84 279.425Z"/><path fill="#FEAC5C" d="M913.883 225.477C936.772 222.407 956.684 228.646 975.941 240.574C976.979 239.368 978.049 238.188 979.148 237.037C986.036 229.952 995.445 225.871 1005.33 225.681C1032.89 225.308 1027.93 258.18 1028.01 277.421L1027.96 344.107C1027.92 356.851 1028.57 371.569 1026.7 383.777C1024.15 400.387 1006.44 409.576 991.102 403.448C982.847 400.149 979.84 396.957 973.929 390.994C971.091 393.951 967.308 397.084 964.172 399.82C936.202 418.277 892.585 412.31 866.844 392.498C826.62 361.54 819.834 298.676 850.936 259.015C867.593 237.773 887.64 228.772 913.883 225.477Z"/><path fill="#0D152D" d="M923.438 279.416C945.327 276.123 965.809 290.99 969.438 312.805C973.067 334.619 958.5 355.306 936.722 359.264C922.336 361.878 907.656 356.546 898.311 345.311C888.965 334.076 886.404 318.683 891.61 305.032C896.815 291.381 908.979 281.591 923.438 279.416Z"/><path fill="#FEAC5C" d="M1291.05 225.474C1295.72 225.256 1315.42 223.471 1320.17 232.506C1338.84 267.965 1294.2 384.109 1377.95 350.553C1400.16 341.658 1386.76 268.026 1391.17 245.203C1395.37 223.513 1421.52 217.834 1439.95 234.894C1446.21 259.382 1445.66 297.478 1444.2 323.224C1440.97 380.034 1460.12 432.753 1408.62 469.419C1385.07 482.048 1353.25 484.599 1327.19 480.395C1306.74 476.518 1280.19 468.672 1280.77 443.117C1281.15 426.82 1295.52 421.345 1309.87 424.528C1324.43 427.761 1338.04 432.569 1353.46 430.835C1363.58 429.698 1373.42 427.769 1381.19 420.379C1391.83 410.36 1391.95 398.018 1392.43 384.557C1384.62 391.996 1376.85 398.353 1366.35 401.668C1348.95 407.157 1326.51 405.281 1310.34 396.872C1293.82 388.286 1283.07 373.074 1277.58 355.568C1275.23 348.099 1274 340.396 1273.39 332.606C1272.36 319.471 1271.81 242.5 1275.58 235.491C1278.69 229.711 1285.13 227.291 1291.05 225.474Z"/><path fill="#8B88A1" d="M1913.4 225.677C1965.33 222.288 2010.18 261.574 2013.62 313.451C2017.06 365.329 1977.77 410.177 1925.84 413.653C1873.86 417.132 1828.9 377.827 1825.46 325.889C1822.02 273.95 1861.4 229.07 1913.4 225.677Z"/><path fill="#0D152D" d="M1913.45 283.394C1934.56 280.296 1954.25 294.725 1957.64 315.779C1961.02 336.833 1946.85 356.696 1925.82 360.361C1911.96 362.776 1897.88 357.554 1888.96 346.693C1880.03 335.832 1877.65 321.014 1882.72 307.907C1887.79 294.8 1899.53 285.435 1913.45 283.394Z"/><path fill="#FEAC5C" d="M721.364 163.695C755.661 157 809.828 175.744 821.796 211.822C823.383 216.605 823.798 225.446 820.629 229.784C804.176 252.297 785.073 242.328 765.352 231.471C750.282 223.231 732.327 222.545 716.324 227.363C700.244 232.187 686.733 243.179 678.747 257.933C670.326 273.725 668.488 292.201 673.634 309.34C678.85 326.419 689.219 338.263 704.907 346.582C723.693 356.529 745.953 357.535 765.561 349.325C782.759 342.139 793.385 331.455 812.471 341.692C816.839 345.328 822.142 353.31 822.492 358.959C824.59 392.835 776.525 406.383 752.219 409.768C718.349 414.764 683.883 406.078 656.437 385.631C632.012 367.178 616.014 339.711 612.023 309.379C607.298 275.391 616.249 240.918 636.916 213.511C658.472 185.272 686.167 168.464 721.364 163.695Z"/><path fill="#8B88A1" d="M1792.05 227.446C1812.82 226.989 1823.71 239.79 1821.25 260.407C1818.52 283.251 1789.73 276.953 1774.29 289.003C1770.22 292.175 1767.22 296.526 1765.72 301.463C1759 323.071 1767.2 365.532 1763.3 389.454C1759.7 411.51 1747.79 413.698 1728.38 411.077C1723.91 409.675 1719.58 407.679 1716.29 404.278C1714 401.948 1712.44 399.002 1711.8 395.8C1710.7 390.25 1710.45 370.022 1710.33 363.678C1709.61 330.961 1710.65 299.026 1710.46 266.244C1710.35 246.769 1711.64 227.944 1736.97 227.689C1748.75 227.57 1755.57 232.699 1763.33 240.721C1772.9 231.214 1779.25 229.068 1792.05 227.446Z"/><path d="M268.56 0L282.031 0C293.511 4.54635 300.93 9.1726 307.695 20.2409C316.509 18.4734 331.557 14.3472 339.162 19.6141C341.197 20.9975 342.568 23.1613 342.949 25.5911C343.346 28.173 342.565 33.4432 342.152 36.1069C351.836 39.561 366.668 39.7633 379.002 44.1137C422.122 59.3227 478.115 81.5993 501.769 122.744C516.305 152.701 513.97 204.772 502.68 235.597C494.203 258.74 481.405 274.595 458.883 285.26C453.147 287.942 447.205 290.161 441.114 291.894C456.153 320.905 458.378 335.769 445.313 366.129C457.702 384.365 487.22 422.55 481.651 443.565C470.969 483.879 404.624 502.016 368.882 508.001C359.727 509.533 345.276 509.613 337.766 512L277.335 512C269.36 509.363 241.536 507.883 230.28 506.08C190.612 499.67 152.03 487.778 115.643 470.745C93.751 460.525 42.4269 435.26 33.0023 412.462C30.1317 405.519 33.1985 397.011 36.3348 390.52C16.0591 374.945 0.513104 359.002 0.644959 331.418C0.759989 307.353 11.3318 290.566 27.9596 274.013C25.342 254.556 28.4261 237.023 40.1992 220.846C51.8407 205.12 69.2597 194.659 88.6227 191.767C100.537 152.03 113.858 122.945 137.727 88.7361C128.686 75.3046 123.365 60.5687 126.105 44.0766C127.995 31.9912 134.668 21.172 144.623 14.0519C152.999 7.96317 163.505 5.56869 173.695 7.42644C191.199 10.5201 201.609 21.7409 211.132 35.3961C219.491 31.8196 227.108 30.0017 236.001 28.4352C244.261 13.4407 252.404 5.86727 268.56 0Z"/><path fill="#FEAC5C" d="M156.108 20.8855C181.487 12.3811 198.31 33.8296 209.129 53.5371C211.002 56.2318 212.775 59.7626 216.336 58.4688C217.492 55.9123 216.481 53.5199 215.736 50.7964L215.806 47.5684C225.1 38.7723 274.259 37.3978 289.232 35.4483C304.051 33.3797 318.816 30.9419 333.514 28.1373C324.652 38.7011 321.206 40.2989 309.385 47.076C327.752 47.1102 343.881 48.5549 362 51.9058C391.992 57.4525 451.725 84.5146 473.745 106.293C474.038 106.584 474.325 106.882 474.604 107.187C478.468 109.848 483.574 115.592 486.366 119.467C505.737 147.658 486.649 153.071 491.923 163.482C496.104 165.05 495.277 161.434 498.514 163.859C503.016 179.73 498.112 209.326 494.163 225.255C484.358 264.795 454.188 278.903 416.901 284.634C399.578 286.714 382.115 287.381 364.684 286.629C355.202 286.207 345.175 285.306 335.652 285.014C333.075 284.935 332.775 285.779 331.163 287.407C330.422 291.602 330.347 290.026 331.809 294.015C333.825 295.72 334.301 296.231 336.829 296.872C354.403 298.238 369.718 299.427 387.399 299.063C403.666 328.243 403.615 339.833 379.319 363.946C367.469 375.542 355.513 387.031 343.455 398.412C305.089 368.046 252.575 342.063 208.707 321.008C179.342 307.718 120.576 281.333 97.4891 259.896L90.0202 253.465C94.208 199.935 115.905 140.548 147.299 97.3602C151.346 99.7087 154.107 100.91 158.434 102.733C163.298 103.627 165.013 103.868 169.939 103.782L171.049 102.405C170.206 100.227 161.199 95.0316 158.607 92.7895C136.109 73.3265 126.601 39.4655 156.108 20.8855Z"/><path fill="#F28A4B" d="M401.399 232.035L402.366 231.692C403.428 229.216 403.448 227.018 403.814 224.349C407.989 193.937 402.084 147.217 429.812 126.662C445.789 114.818 468.202 116.401 486.366 119.467C505.737 147.658 486.649 153.071 491.923 163.482C496.104 165.05 495.277 161.434 498.514 163.859C503.016 179.73 498.112 209.326 494.163 225.255C484.358 264.795 454.188 278.903 416.901 284.634C414.617 277.226 400.437 265.389 399.175 251.007C397.017 245.825 393.094 241.023 395.206 235.285C398.13 232.338 397.204 233.146 401.399 232.035Z"/><path d="M475.166 198.101C475.529 209.397 475.641 218.74 471.999 229.617C465.872 247.912 449.17 264.097 429.049 264.578C419.065 264.837 409.398 261.067 402.23 254.119C401.187 253.107 400.168 252.069 399.175 251.007C397.017 245.825 393.094 241.023 395.206 235.285C398.13 232.338 397.204 233.146 401.399 232.035C404.227 240.033 408.192 249.72 416.813 252.687C454.051 265.506 468.82 223.731 475.166 198.101Z"/><path d="M442.4 147.132C455.114 147.239 473.922 161.759 461.483 172.648C448.831 171.406 429.231 161.033 442.4 147.132Z"/><path fill="#F28A4B" d="M90.0202 253.465C94.208 199.935 115.905 140.548 147.299 97.3602C151.346 99.7087 154.107 100.91 158.434 102.733C163.298 103.627 165.013 103.868 169.939 103.782C158.508 124.585 149.593 147.053 145.339 170.472C149.418 165.074 155.531 156.512 159.962 151.802C152.883 176.601 145.755 210.423 150.021 236.122C155.02 227.919 157.005 220.32 161.383 212.553C161.287 249.803 169.294 271.364 192.296 302.121C195.475 306.372 207.047 317.497 208.707 321.008C179.342 307.718 120.576 281.333 97.4891 259.896L90.0202 253.465Z"/><path fill="#FEAC5C" d="M90.0202 253.465C94.208 199.935 115.905 140.548 147.299 97.3602C151.346 99.7087 154.107 100.91 158.434 102.733C130.3 141.568 115.391 177.506 104.081 223.746C102.858 228.744 98.942 257.593 97.4891 259.896L90.0202 253.465Z"/><path fill="#FECB8D" d="M215.736 50.7964L215.806 47.5684C225.1 38.7723 274.259 37.3978 289.232 35.4483C304.051 33.3797 318.816 30.9419 333.514 28.1373C324.652 38.7011 321.206 40.2989 309.385 47.076C327.752 47.1102 343.881 48.5549 362 51.9058C391.992 57.4525 451.725 84.5146 473.745 106.293C474.038 106.584 474.325 106.882 474.604 107.187C466.015 109.533 416.991 85.4247 405.501 80.8046C393.649 76.0943 381.614 71.8563 369.425 68.1007C317.008 52.0708 269.665 50.7395 215.736 50.7964Z"/><path fill="#F28A4B" d="M336.829 296.872C354.403 298.238 369.718 299.427 387.399 299.063C403.666 328.243 403.615 339.833 379.319 363.946C378.071 357.936 377.6 352.668 375.946 346.461C369.863 323.634 353.067 312.175 336.829 296.872Z"/><path fill="#FECB8D" d="M156.108 20.8855C181.487 12.3811 198.31 33.8296 209.129 53.5371C204.434 52.1175 164.969 26.1832 156.108 20.8855Z"/><path fill="#A44415" d="M174.1 86.7617C162.135 79.1603 149.752 57.1013 155.549 42.7236C157.359 38.2363 163.057 36.9443 167.227 39.3205C178.508 45.7486 182.265 57.1646 186.208 68.6391C187.27 70.774 193.37 80.923 193.43 81.8944L192.759 80.3077L191.123 81.3226C186.849 79.1049 182.858 77.0158 178.687 74.5772C179.72 82.3549 180.655 87.2197 182.531 94.8421L174.1 86.7617Z"/><path d="M174.1 86.7617C171.135 79.2608 167.75 71.984 171.743 64.1165C177.741 59.9419 181.676 64.4523 186.208 68.6391C187.27 70.774 193.37 80.923 193.43 81.8944L192.759 80.3077L191.123 81.3226C186.849 79.1049 182.858 77.0158 178.687 74.5772C179.72 82.3549 180.655 87.2197 182.531 94.8421L174.1 86.7617Z"/><path d="M281.781 110.718C284.965 110.48 288.421 110.248 291.601 110.418C300.16 110.943 308.166 114.816 313.887 121.197C318.098 125.919 322.656 133.876 316.826 138.949C309.275 140.318 304.205 130.748 293.337 126.232C274.755 122.492 267.713 143.268 256.557 139.275C255.746 137.486 255.995 136.636 256.338 134.788C258.803 121.497 269.855 114.806 281.781 110.718Z"/><defs><linearGradient id="gradient_0" gradientUnits="userSpaceOnUse" x1="245.69118" y1="494.69528" x2="280.20383" y2="274.11221"><stop offset="0" stop-color="#5065B0"/><stop offset="1" stop-color="#5B80CF"/></linearGradient></defs><path fill="url(#gradient_0)" d="M416.365 296.898L427.461 295.028C455.849 337.906 437.317 365.975 404.962 398.071L418.692 392.666C426.799 387.784 431.641 384.339 438.249 377.673L446.807 390.724C454.682 402.339 465.007 416.53 469.511 429.71C471.348 434.843 470.537 444.043 467.187 448.545C434.343 492.684 351.035 501.118 302.187 500.527C226.538 500.298 152.263 480.311 86.7317 442.551C76.7098 436.819 49.1706 420.523 45.1633 408.42C43.0436 402.017 51.4703 390.094 55.0284 384.337C60.7982 374.118 69.4533 361.442 76.2823 351.651C120.884 356.18 163.528 369.836 205.64 384.618C212.196 386.919 240.642 397.971 246.362 397.949C253.087 399.951 259.96 403.109 266.447 405.9C270.001 406.635 278.767 410.422 282.029 412.251C286.487 396.688 301.313 394.907 313.107 404.391C317.711 403.541 322.324 402.741 326.946 401.99C331.659 404.697 336.872 411.753 342.594 411.825C351.257 411.935 391.097 370.515 399.059 362.468C416.022 336.912 413.936 324.816 400.428 298.395C405.649 298.022 411.132 297.402 416.365 296.898Z"/><path d="M282.029 412.251C286.487 396.688 301.313 394.907 313.107 404.391C318.504 412.74 319.079 417.539 313.049 425.792L313.114 460.813C316.644 464.176 321.352 470.371 320.732 475.335C317.606 500.362 262.871 487.684 289.518 462.163C289.627 452.129 290.297 436.65 288.572 427.039C287.723 422.308 282.118 423.815 282.029 412.251Z"/><path fill="#88ABEC" d="M298.074 411.912C299.701 412.05 301.353 412.486 302.955 412.848C309.21 417.921 308.555 459.748 305.948 464.371C302.373 464.476 299.57 464.769 296.159 463.632C295.376 462.314 294.96 460.459 295.078 458.97C295.924 448.314 292.36 419.961 298.074 411.912Z"/><path fill="#2A519E" d="M288.972 467.265C300.389 472.322 309.802 465.824 315.07 470.44C316.196 473.553 315.342 476.373 314.73 479.639C307.941 486.156 283.921 488.737 288.972 467.265Z"/><path fill="#2A519E" d="M297.315 403.423C303.294 403.888 312.29 406.891 311.549 414.379C306.739 409.033 306.08 407.211 299.293 406.057C287.731 410.568 291.415 416.45 288.603 419.096C284.712 410.711 290.265 406.331 297.315 403.423Z"/><path fill="#2A519E" d="M76.2823 351.651C120.884 356.18 163.528 369.836 205.64 384.618C212.196 386.919 240.642 397.971 246.362 397.949C253.087 399.951 259.96 403.109 266.447 405.9C253.466 407.606 157.967 376.982 138.112 373.898C120.237 371.122 93.7574 366.115 75.226 372.311C70.0709 374.034 59.7969 381.142 55.0284 384.337C60.7982 374.118 69.4533 361.442 76.2823 351.651Z"/><path fill="#2A519E" d="M400.428 298.395C405.649 298.022 411.132 297.402 416.365 296.898C421.019 315.71 418.952 333.413 409.162 350.501C406.951 354.359 402.809 360.229 399.059 362.468C416.022 336.912 413.936 324.816 400.428 298.395Z"/><path fill="#2A519E" d="M438.249 377.673L446.807 390.724C435.242 390.546 430.009 391.408 418.692 392.666C426.799 387.784 431.641 384.339 438.249 377.673Z"/><path d="M380.206 397.626C397.06 396.963 407.469 411.48 394.847 425.93L394.884 458.751C400.154 463.255 402.616 464.863 402.656 472.707C402.699 481.219 397.072 485.242 389.107 485.28C381.299 485.507 365.125 486.841 364.867 473.726C364.762 468.364 368.119 463.824 372.018 460.279C371.942 455.488 372.877 428.986 371.346 426.636C364.427 416.012 357.247 404.056 380.206 397.626Z"/><path fill="#6285D4" d="M380.708 410.748L385.45 411.382C392.012 417.378 391.108 458.307 387.746 462.563C384.21 462.817 380.501 463.608 378.178 460.707C377.09 451.706 376.101 417.198 380.708 410.748Z"/><path fill="#2A519E" d="M394.745 465.444L396.407 465.846C404.407 482.94 382.053 480.672 372.773 479.978C372.247 479.224 371.774 478.434 371.358 477.613C370.181 475.291 369.266 472.292 370.087 469.747C376.444 464.142 382.337 471.253 394.745 465.444Z"/><path fill="#2A519E" d="M381.746 402.585C389.87 403.479 396.091 407.527 395.705 416.474L394.578 416.89C391.589 408.934 391.469 407.13 382.728 405.047C371.564 409.089 376.918 410.784 371.252 418.36L370.625 417.545C369.215 408.068 373.598 405.056 381.746 402.585Z"/><path fill="#6285D4" d="M70.0993 211.765C69.6575 216.947 69.0916 222.481 68.7735 227.638C58.2709 238.383 71.794 253.358 80.2117 261.119C120.091 297.886 173.938 317.016 221.979 340.798C256.62 357.603 290.057 376.778 322.053 398.186L326.946 401.99C322.324 402.741 317.711 403.541 313.107 404.391C301.313 394.907 286.487 396.688 282.029 412.251C278.767 410.422 270.001 406.635 266.447 405.9C259.96 403.109 253.087 399.951 246.362 397.949C240.157 395.484 232.568 391.393 226.415 388.474C178.014 365.516 131.704 346.283 78.073 340.533C72.2117 340.733 64.0096 340.092 60.0079 344.284C60.517 347.915 64.334 346.218 61.9648 350.599C57.3087 359.21 50.4506 367.017 45.1647 375.226L42.4097 378.821L40.3509 378.825C14.6418 360.68 4.83297 332.092 20.9039 302.944C23.5861 298.08 27.2052 290.496 32.4611 288.419C35.165 287.351 38.3876 289.21 41.8932 287.577C47.9839 279.004 26.2734 250.989 58.5986 219.445C62.7347 216.184 65.6454 214.433 70.0993 211.765Z"/><path fill="#88ABEC" d="M70.0993 211.765C69.6575 216.947 69.0916 222.481 68.7735 227.638C58.2709 238.383 71.794 253.358 80.2117 261.119C120.091 297.886 173.938 317.016 221.979 340.798C256.62 357.603 290.057 376.778 322.053 398.186C302.03 401.671 245.377 372.039 225.443 364.822C174.06 346.218 126.64 319.787 83.8299 285.936C75.6508 280.65 66.7231 278.522 59.3969 271.816C40.6726 254.675 59.3926 232.31 58.5986 219.445C62.7347 216.184 65.6454 214.433 70.0993 211.765Z"/><path fill="#2A519E" d="M45.1647 375.226C43.2077 370.3 41.8203 363.057 42.728 357.81C43.6484 352.193 46.854 347.207 51.5842 344.034C59.7677 338.46 68.8318 338.795 78.073 340.533C72.2117 340.733 64.0096 340.092 60.0079 344.284C60.517 347.915 64.334 346.218 61.9648 350.599C57.3087 359.21 50.4506 367.017 45.1647 375.226Z"/><path fill="#FEAC5C" d="M271.221 12.1521C282.71 12.061 286.065 14.874 294.258 22.1492L272.442 24.6013C265.452 25.0061 258.03 25.7694 251.017 26.3738C257.666 19.0427 261.746 15.063 271.221 12.1521Z"/><path fill="#2A519E" d="M70.0993 211.765C76.2502 208.772 79.023 208.02 85.5555 206.231C82.6283 217.801 80.0837 229.906 78.8213 241.787L68.7735 227.638C69.0916 222.481 69.6575 216.947 70.0993 211.765Z"/></svg>