<?xml version="1.0" encoding="utf-8" ?><svg xmlns="http://www.w3.org/2000/svg" xmlns:xlink="http://www.w3.org/1999/xlink" width="512" height="512" viewBox="0 0 512 512"><path fill="#010101" d="M268.581 0L281.97 0L282.214 0.118729C284.447 1.18229 286.981 1.78401 289.069 2.79747C297.253 6.77044 302.592 12.6986 307.718 19.9051C320.344 17.8988 347.517 9.45275 342.746 32.6071C342.554 33.5415 341.4 35.5962 340.9 36.421C345.101 36.5156 350.923 37.6265 355.233 38.4198C395.067 45.7501 435.318 64.5892 468.505 87.5426C473.911 91.2822 484.258 99.2416 488.709 103.771C501.993 117.288 507.549 134.32 510.457 152.606C510.864 155.162 511.447 164.021 512 165.572L512 188.183C511.19 190.519 511.029 196.111 510.754 198.815C510.32 203.055 509.735 207.279 509 211.477C502.824 247.898 485.716 276.795 449.62 289.18C447.056 290.059 443.41 291.071 441.059 292.249C442.724 294.602 443.953 297.25 445.307 299.788C456.758 321.245 456.624 344.601 445.167 366.166C447.407 368.684 453.954 378.569 456.148 381.898C465.486 396.068 476.583 411.545 481.277 427.951C482.271 431.75 482.442 435.858 482.229 439.746C481.61 451.057 473.974 462.071 465.401 469.15C431.356 497.261 384.737 507.417 341.712 511.112C340.603 511.207 338.633 511.556 337.633 512L277.377 512C274.882 510.937 268.261 510.663 265.306 510.42C252.578 509.374 240.201 507.855 227.616 505.64C189.572 499.232 152.545 487.81 117.502 471.671C104.689 465.751 91.294 458.787 79.0422 451.686C65.8644 443.862 52.4376 435.62 41.2904 425.029C30.6122 414.884 29.1269 403.189 36.3921 390.491C34.3556 389.066 32.1071 387.08 30.0845 385.563C16.5885 375.442 5.76111 362.079 2.06324 345.248C-3.11912 321.659 5.55677 298.064 21.3823 280.479C23.5191 278.105 25.9511 276.55 27.6537 273.705C27.5398 266.949 26.3341 262.513 27.1498 255.026C30.2848 226.253 49.3132 203.83 76.4901 194.494C79.4365 193.482 86.2993 192.12 88.5469 191.137C89.3983 189.177 91.2844 182.906 91.7598 181.408C102.56 147.374 117.211 117.876 137.745 88.6715C127.699 74.4333 122.739 57.8541 126.795 40.5425C129.529 28.8021 136.82 18.6307 147.059 12.27C155.594 6.97836 165.896 5.33555 175.653 7.71036C191.072 11.4359 202.93 22.0501 211.093 35.2958C216.31 33.6456 221.426 31.2299 227.013 30.0165C229.155 29.449 233.52 29.217 235.395 28.4203C236.14 28.1036 237.917 25.1339 238.378 24.3643C241.612 18.9618 245.725 13.8122 250.505 9.68898C253.858 6.79648 258.179 4.0719 262.238 2.39348C264.232 1.56863 266.357 1.01715 268.347 0.109089L268.581 0Z"/><path fill="#F5A464" d="M155.768 21.2683C177.061 11.6029 195.151 30.6056 205.422 47.0355C207.187 49.8593 208.757 52.9402 210.587 55.6741C211.85 57.1876 214.235 60.6815 216.365 59.2351C217.489 56.9886 216.633 53.7058 216.182 51.2885C215.887 49.7957 215.57 48.2964 215.345 46.7927C223.636 43.5786 232.291 40.8263 241.144 39.7792C256.805 37.9268 272.737 38.0145 288.396 35.6514C297.252 34.3148 306.092 33.2851 314.892 31.5295C320.091 30.5902 327.251 28.8654 332.242 28.6764C327.91 36.1071 321.923 39.9617 314.456 44.0916C312.47 45.1898 310.041 46.1304 308.178 47.2113C322.386 47.2248 336.085 47.5355 350.168 49.7147C382.889 54.7779 414.922 68.2897 443.331 85.0481C452.053 90.1931 469.486 101.026 476.195 108.368C477.858 109.468 479.942 111.744 481.332 113.282C488.429 121.14 494.613 131.139 495.688 141.884C496.006 145.391 494.788 148.342 493.8 151.639C492.868 154.748 488.482 161.348 491.989 163.893C493.604 165.064 497.162 162.659 498.509 161.623C502.232 189.395 498.247 231.136 480.573 254.011C455.261 286.771 397.262 288.728 359.423 286.532C354.882 286.273 350.349 285.894 345.828 285.394C342.491 285.04 334.124 283.333 331.955 286.183C327.859 291.562 332.09 296.213 337.956 297.016C345.878 297.481 353.809 298.284 361.761 298.717C370.262 299.17 378.775 299.335 387.287 299.214C396.316 313.4 404.213 331.148 393.91 346.545C390.194 352.098 384.458 359.332 379.456 363.848C375.16 367.876 370.99 372.397 366.681 376.426C358.868 383.732 351.011 390.94 343.397 398.461C332.894 389.081 316.563 379.096 304.428 371.593C268.106 349.134 229.758 330.758 191.044 312.833C178.727 307.166 166.509 301.288 154.394 295.202C131.313 283.629 108.945 271.438 90.055 253.484C91.1956 237.696 93.9373 224.072 97.5399 208.752C107.209 167.638 122.51 131.264 147.499 97.0097C154.521 102.566 164.14 105.75 172.763 102.298C160.492 94.9927 150.472 87.284 143.607 74.2799C137.867 63.4077 135.795 52.2344 139.598 40.367C142.244 32.1096 148.06 25.2403 155.768 21.2683Z"/><path fill="#FECA8F" d="M215.345 46.7927C223.636 43.5786 232.291 40.8263 241.144 39.7792C256.805 37.9268 272.737 38.0145 288.396 35.6514C297.252 34.3148 306.092 33.2851 314.892 31.5295C320.091 30.5902 327.251 28.8654 332.242 28.6764C327.91 36.1071 321.923 39.9617 314.456 44.0916C312.47 45.1898 310.041 46.1304 308.178 47.2113C322.386 47.2248 336.085 47.5355 350.168 49.7147C382.889 54.7779 414.922 68.2897 443.331 85.0481C452.053 90.1931 469.486 101.026 476.195 108.368C474.984 108.307 474.737 107.507 473.763 106.899C473.088 107.049 472.667 107.171 472.103 107.585C470.987 108.404 470.124 107.944 468.939 107.468C463.63 105.335 458.102 104 452.823 101.741C436.033 94.5552 419.752 86.1569 402.699 79.5621C352.725 60.2365 307.55 52.6369 254.205 51.0586C244.62 50.7299 235.027 50.6633 225.438 50.8588C223.498 50.8823 217.692 50.7947 216.182 51.2885C215.887 49.7957 215.57 48.2964 215.345 46.7927Z"/><path fill="#DA894F" d="M337.956 297.016C345.878 297.481 353.809 298.284 361.761 298.717C370.262 299.17 378.775 299.335 387.287 299.214C396.316 313.4 404.213 331.148 393.91 346.545C390.194 352.098 384.458 359.332 379.456 363.848C378.257 361.955 377.442 352.652 376.853 349.689C374.009 335.383 365.821 323.925 355.576 313.776C352.461 310.748 349.224 307.85 345.871 305.088C343.306 302.932 339.244 299.998 337.956 297.016Z"/><path fill="#FECA8F" d="M155.768 21.2683C177.061 11.6029 195.151 30.6056 205.422 47.0355C207.187 49.8593 208.757 52.9402 210.587 55.6741L210.375 55.8143C209.21 54.5359 201.96 50.1962 199.744 48.7099C192.653 43.8801 185.529 39.0998 178.371 34.3693C174.962 32.1112 171.501 29.7577 168.028 27.6046C164.626 25.4945 159.499 23.5152 156.184 21.5223L155.768 21.2683Z"/><path fill="#8F461F" d="M156.29 38.2254C162.238 38.4567 165.99 39.4242 171.139 42.2782C178.883 47.872 180.403 52.8172 183.658 61.6093C184.262 63.1597 185.695 66.6125 185.891 68.1887C190.996 77.3073 188.801 76.6051 197.824 83.0255C189.041 81.0239 187.177 79.6351 179.474 74.8876C179.112 80.9767 180.604 88.3026 182.525 94.1202C178.952 91.6275 176.696 89.8568 173.881 86.479C165.848 81.1301 158.668 69.9371 155.917 60.6364C153.573 54.2988 153.894 44.6281 156.29 38.2254Z"/><path fill="#010101" d="M173.426 84.7609C171.213 79.2454 164.608 64.412 175.161 62.298C179.187 61.4914 183.013 65.8499 185.891 68.1887C190.996 77.3073 188.801 76.6051 197.824 83.0255C189.041 81.0239 187.177 79.6351 179.474 74.8876C179.112 80.9767 180.604 88.3026 182.525 94.1202C178.952 91.6275 176.696 89.8568 173.881 86.479C173.737 85.7748 173.636 85.4314 173.426 84.7609Z"/><path fill="#63230E" d="M155.917 60.6364C156.237 60.7991 156.527 60.9171 156.873 61.0259C157.292 62.24 157.722 63.4528 158.146 64.6655C160.884 72.496 166.821 79.131 172.809 84.7562C173.323 84.7989 173.119 84.8268 173.426 84.7609C173.636 85.4314 173.737 85.7748 173.881 86.479C165.848 81.1301 158.668 69.9371 155.917 60.6364Z"/><path fill="#63230E" d="M171.139 42.2782C178.883 47.872 180.403 52.8172 183.658 61.6093L182.868 61.6192C181.932 60.5131 180.032 54.0008 179.029 52.2157C177.014 48.6271 174.414 46.2236 171.453 43.4511C170.946 42.9765 171.132 43.17 171.139 42.2782Z"/><path fill="#010101" d="M286.442 110.355C297.669 109.639 306.849 113.303 314.442 121.797C317.828 125.585 324.117 134.325 317.971 138.745C312.314 142.813 304.504 131.87 299.892 129.347C295.925 127.177 293.882 126.408 289.266 125.525C274.808 124.163 271.263 138.27 261.046 140.86C258.602 140.234 256.013 138.79 255.914 135.943C255.76 131.508 259.029 126.512 261.81 123.31C268.382 115.743 276.333 111.085 286.442 110.355Z"/><path fill="#010101" d="M475.008 196.394C475.479 197.498 475.254 202.176 475.3 203.623C475.585 215.668 474.427 227.337 468.641 238.233C457.715 258.812 432.025 271.463 410.068 260.211C402.65 256.409 397.344 249.51 395.002 241.469C394.171 238.47 394.417 231.631 399.574 232.639C402.232 233.158 404.015 238.828 405.187 241.372C411.75 255.611 429.674 258.397 442.76 251.87C461.424 242.976 469.87 220.266 474.11 201.2C474.473 199.568 474.365 197.964 475.008 196.394Z"/><path fill="#010101" d="M443.756 147.295C459.156 146.061 474.053 169.452 459.924 172.291C457.087 172.284 454.279 171.729 451.653 170.654C446.38 168.518 440.579 163.902 438.387 158.487C436.302 153.337 438.789 149.226 443.756 147.295Z"/><defs><linearGradient id="gradient_0" gradientUnits="userSpaceOnUse" x1="233.78867" y1="496.14508" x2="253.00319" y2="225.51062"><stop offset="0" stop-color="#505DA6"/><stop offset="1" stop-color="#8CA8F1"/></linearGradient></defs><path fill="url(#gradient_0)" d="M70.1903 211.795C70.5621 212.807 69.9502 214.982 69.795 216.243C69.2625 220.568 68.8231 224.757 69.3223 229.11C66.558 229.364 65.6595 230.422 64.7191 233.031C63.0121 247.266 82.7838 264.199 93.1101 272.373C116.747 291.085 143.978 303.993 171.127 316.657C183.18 322.225 195.204 327.855 207.199 333.546C225.915 342.552 244.381 352.066 262.578 362.078C275.9 369.412 289.739 377.077 302.489 385.369C308.421 389.227 318.169 395.113 323.472 399.371C324.277 399.66 325.42 400.742 326.232 401.217C331.015 404.014 337.987 412.657 343.734 412.164C347.985 411.8 355.37 404.024 358.708 400.944C364.711 395.44 370.666 389.883 376.572 384.275C382.374 378.771 392.599 369.948 397.308 363.933C416.595 339.931 414.103 323.981 400.354 298.471C405.56 298.221 411.313 297.445 416.53 296.861C419.574 296.418 424.672 295.397 427.413 295.173C451.863 327.757 441.774 359.588 415.898 386.899C412.557 390.425 408.114 394.423 404.995 397.958C410.076 396.022 414.585 394.409 419.511 392.066C427.337 387.258 431.903 384.548 438.231 377.584C440.66 381.009 444.728 387.24 446.801 390.847C447.848 391.957 451.353 397.264 452.366 398.876C458.503 408.642 466.352 419.425 469.795 430.451C471.667 436.447 470.441 443.385 467.166 448.641C453.336 470.839 416.574 484.314 392.707 490.729C365.856 497.947 335.536 500.515 308.023 500.549C231.472 501.323 156.077 481.848 89.4765 444.099C78.7038 437.852 47.6919 419.92 44.7687 407.79C43.2818 401.619 52.1587 388.878 55.5279 383.436C57.4854 379.503 60.8273 374.678 63.2941 370.947C67.4843 364.524 71.7606 358.157 76.1218 351.848C92.5859 352.666 107.107 355.906 123.023 359.676C135.385 362.615 147.672 365.861 159.872 369.411C188.517 377.983 216.978 388.451 245.027 398.78C246.077 399.166 247.874 399.741 248.934 399.491L249.045 399.111C244.75 397.562 238.279 394.114 233.992 392.023C226.326 388.322 218.611 384.721 210.849 381.223C174.875 365.011 137.914 350.021 98.85 343.165C91.6824 341.907 84.3066 341.213 77.062 340.488C74.0005 340.607 59.5954 340.654 59.5964 344.914C60.5496 346.621 62.9119 347.409 64.7769 348.099C58.7692 355.8 52.8478 363.274 47.6501 371.544C47.1844 372.285 46.0379 374.014 45.515 374.586C44.3415 376.356 43.1559 378.118 41.9583 379.873C40.051 378.697 38.2303 377.386 36.5104 375.95C24.6485 366.16 14.9313 353.47 13.4403 337.715C11.467 316.865 20.1622 301.426 32.891 285.943C34.8945 287.922 38.5015 290.449 41.3734 288.84C46.0951 286.194 41.9436 277.509 41.2122 273.416C39.4432 263.516 39.7836 252.942 43.0144 243.365C47.5128 229.646 57.2928 218.285 70.1903 211.795Z"/><path fill="#3B529B" d="M76.1218 351.848C92.5859 352.666 107.107 355.906 123.023 359.676C135.385 362.615 147.672 365.861 159.872 369.411C188.517 377.983 216.978 388.451 245.027 398.78C246.077 399.166 247.874 399.741 248.934 399.491L249.045 399.111C253.119 399.311 266.952 406.762 272.232 408.301L272.32 408.569C271.438 408.817 269.793 408.131 268.927 407.8C264.925 406.27 260.8 405.915 256.638 404.98C238.779 400.836 221.011 396.31 203.346 391.404C177.722 384.336 150.452 375.007 124.016 371.725C109.711 369.949 88.528 367.265 75.1064 372.376C72.5894 373.345 70.1595 374.526 67.8429 375.907C65.8017 377.103 57.6382 383.341 56.029 383.425C55.8622 383.434 55.6949 383.432 55.5279 383.436C57.4854 379.503 60.8273 374.678 63.2941 370.947C67.4843 364.524 71.7606 358.157 76.1218 351.848Z"/><path fill="#3B529B" d="M400.354 298.471C405.56 298.221 411.313 297.445 416.53 296.861C421.567 317.211 418.52 335.458 407.522 353.123C405.848 355.812 400.709 363.75 397.308 363.933C416.595 339.931 414.103 323.981 400.354 298.471Z"/><path fill="#3B529B" d="M45.515 374.586C42.5181 371.311 41.8479 359.355 43.1583 355.014C46.8402 342.814 62.7238 337.212 74.2992 339.876C75.287 340.104 76.0483 340.306 77.062 340.488C74.0005 340.607 59.5954 340.654 59.5964 344.914C60.5496 346.621 62.9119 347.409 64.7769 348.099C58.7692 355.8 52.8478 363.274 47.6501 371.544C47.1844 372.285 46.0379 374.014 45.515 374.586Z"/><path fill="#8B9EDF" d="M323.472 399.371L322.993 399.615C322.534 399.239 317.906 396.032 317.609 395.945C317.012 396.212 317.027 396.264 316.391 396.212C315.728 395.739 313.236 394.115 312.883 393.63L313.103 393.02C311.762 392.35 308.168 389.808 306.709 388.852C302.586 386.176 298.432 383.546 294.25 380.961C279.299 371.996 264.115 363.425 248.714 355.257C227.239 344.058 205.524 333.324 183.585 323.065C153.602 308.955 123.644 296.31 97.0571 276.124C84.0427 266.242 72.2436 258.14 65.4043 242.418C64.591 240.549 63.0256 234.335 64.7191 233.031C63.0121 247.266 82.7838 264.199 93.1101 272.373C116.747 291.085 143.978 303.993 171.127 316.657C183.18 322.225 195.204 327.855 207.199 333.546C225.915 342.552 244.381 352.066 262.578 362.078C275.9 369.412 289.739 377.077 302.489 385.369C308.421 389.227 318.169 395.113 323.472 399.371Z"/><path fill="#3B529B" d="M438.231 377.584C440.66 381.009 444.728 387.24 446.801 390.847C440.292 390.774 433.608 390.601 427.116 391.529C424.466 391.908 421.772 393.343 419.511 392.066C427.337 387.258 431.903 384.548 438.231 377.584Z"/><path fill="#010101" d="M296.103 398.806C301.256 398.4 306.123 399.074 310.365 402.167C315.179 405.679 318.134 411.627 317.161 417.605C316.636 420.826 315.182 422.749 313.319 425.232C312.831 428.64 312.976 435.12 312.995 438.805C313.047 446.302 313.139 453.798 313.272 461.294C317.374 464.461 320.064 468.21 320.09 473.59C320.144 485.091 315.142 487.93 304.641 488.033C300.96 488.032 297.32 488.139 293.646 487.97C285.377 487.663 282.418 479.708 283.28 472.594C283.805 468.264 286.101 465.133 289.469 462.543C289.768 450.516 289.535 437.681 289.489 425.583C285.565 424.555 283.312 421.825 282.523 417.874C281.647 413.662 282.511 409.274 284.92 405.709C287.726 401.525 291.319 399.743 296.103 398.806Z"/><path fill="#8B9EDF" d="M299.54 412.285C308.004 411.789 307.133 421.439 307.089 427.463C307 439.629 307.347 451.752 307.428 463.903C306.031 464.162 304.409 464.296 302.982 464.452C300.05 464.528 298.023 464.386 295.128 464.091C295.007 462.038 295.054 459.601 295.156 457.475C295.817 443.718 294.099 429.56 295.627 415.942C295.799 414.405 298.232 412.868 299.54 412.285Z"/><path fill="#3B529B" d="M312.52 466.451C317.292 467.808 316.7 482.417 309.724 482.735C304.636 482.967 294.841 484.625 290.497 481.709C286.828 477.241 287.038 472.054 289.616 467.134C296.123 471.3 306.291 471.127 312.52 466.451Z"/><path fill="#3B529B" d="M297.935 403.825C302.917 403.286 308.69 406.151 310.784 410.734C311.452 412.197 312.413 414.204 311.881 415.816C310.791 414.998 309.301 409.991 305.96 408.15C302.556 406.275 301.614 406.181 297.724 406.864C293.042 408.772 289.828 412.345 289.416 417.593C289.342 418.539 289.654 419.789 289.244 420.512L288.907 420.361C288.23 419.422 287.826 417.626 287.645 416.466C286.506 409.186 291.48 404.932 297.935 403.825Z"/><path fill="#010101" d="M380.294 397.828L381.234 397.779C386.669 397.516 391.047 398.651 395.291 402.432C400.174 406.782 402.375 414.317 399.204 420.303C398.211 422.176 395.064 424.978 394.931 426.858C394.66 430.676 394.769 434.876 394.78 438.716C394.749 445.565 394.82 452.413 394.993 459.26C400.269 461.536 402.384 465.859 402.659 471.403C402.852 475.313 401.719 479.008 398.974 481.906C395.358 485.726 391.336 485.415 386.563 485.404C382.46 485.417 377.988 485.669 373.954 485.22C364.993 484.222 363.565 472.18 367.086 465.674C368.362 463.315 369.821 462.095 372.006 460.63C372.477 449.235 371.828 437.167 372.446 425.434C371.346 425.002 370.001 424.518 369.07 423.807C363.035 419.196 363.737 410.231 367.944 404.672C371.079 400.528 375.295 398.551 380.294 397.828Z"/><path fill="#8B9EDF" d="M382.274 411.068C385.997 410.623 388.906 412.335 389.224 416.29C389.655 421.658 389.452 427.166 389.455 432.563C389.513 442.401 389.509 452.24 389.442 462.078C387.817 462.34 386.251 462.483 384.614 462.645C382.026 462.825 380.571 462.754 378.039 462.336C377.489 455.701 377.907 446.07 377.841 438.959C377.774 431.791 377.494 421.971 378.302 414.906C378.498 413.192 380.789 411.821 382.274 411.068Z"/><path fill="#3B529B" d="M395.339 464.448L395.828 464.607C398.955 468.738 398.049 480.029 392.013 480.236C387.243 480.4 376.429 481.568 372.689 479.133C368.998 475.567 369.371 470.338 371.964 466.244C379.538 469.066 388.618 469.386 395.339 464.448Z"/><path fill="#3B529B" d="M393.85 412.675C388.663 402.419 376.233 403.259 372.591 414.286C371.955 416.214 372.66 418.511 372.136 419.869L371.807 419.858C370.594 418.213 370.219 414.415 370.516 412.469C370.969 409.508 372.555 407.021 374.982 405.301C378.044 403.162 381.856 402.389 385.509 403.165C388.888 403.84 391.847 405.858 393.709 408.756C394.41 409.861 395.104 411.486 395.346 412.787C395.831 415.805 395.476 417.277 394.463 420.011C394.199 417.378 394.413 415.431 393.85 412.675Z"/><path fill="#F5A464" d="M272.097 12.3431C272.567 12.3152 273.039 12.294 273.51 12.2794C282.926 11.9959 287.679 16.1801 294.151 22.2398C286.86 22.7127 279.266 24.026 271.689 24.5784C264.983 25.0693 257.411 25.5177 250.845 26.7564C256.323 20.2415 263.227 13.2439 272.097 12.3431Z"/><path fill="#3B529B" d="M70.1903 211.795C73.213 209.594 81.5915 207.24 85.5092 206.067C82.3237 218.799 80.5496 228.464 78.8565 241.35C77.4487 239.867 76.5902 238.736 75.3981 237.158C74.0995 235.44 71.1782 229.497 69.3223 229.11C68.8231 224.757 69.2625 220.568 69.795 216.243C69.9502 214.982 70.5621 212.807 70.1903 211.795Z"/></svg>