<?xml version="1.0" encoding="utf-8" ?><svg xmlns="http://www.w3.org/2000/svg" xmlns:xlink="http://www.w3.org/1999/xlink" width="995" height="263" viewBox="0 0 995 263"><path fill="#171B30" d="M102.423 3.60408C140.152 -0.438241 180.176 21.8273 188.328 60.6537C193.915 56.889 199.575 53.3316 205.927 50.998C224.721 44.0928 251.175 43.5678 269.549 51.8973C286.263 42.2711 302.484 43.9453 317.229 56.1013C331.598 43.2864 350.023 43.0394 366.464 52.0022C378.314 46.8394 388.224 45.3685 401.214 46.094C421.463 47.2284 440.411 56.443 453.813 71.6736C454.046 70.7808 454.299 69.8936 454.573 69.0128C457.077 60.7626 462.817 53.881 470.482 49.9409C479.59 45.1698 496.465 44.0362 505.804 47.5171C528.463 55.9627 527.382 72.8568 527.278 91.9831L527.11 118.839C527.095 121.768 526.696 128.367 527.945 130.766C529.631 131.902 528.925 131.728 530.797 131.686C533.003 129.217 531.719 121.74 532.019 118.199C533.934 95.6036 524.153 63.2229 549.217 50.2779C559.727 44.8492 573.921 44.661 585.17 47.736C595.698 50.6952 601.967 58.3704 606.884 67.6946C606.564 27.3559 621.767 3.63344 665.826 4.97071C679.43 5.38363 691.753 3.97768 705.739 6.49211C712.986 7.79074 720.003 10.144 726.568 13.4769C745.182 22.8969 756.423 37.8905 762.821 57.4346C775.003 45.1332 790.265 43.4535 805.136 52.1448C805.433 51.9646 805.733 51.7907 806.038 51.6233C825.156 41.0809 846.872 46.5544 857.577 65.8956C889.345 41.5951 928.727 40.8731 961.027 64.8608C978.036 77.3729 989.343 96.1665 992.435 117.062C995.424 137.46 990.378 159.065 978.011 175.648C964.397 193.746 944.219 205.764 921.83 209.111C896.591 212.726 876.703 204.955 856.825 190.038C845.079 179.371 836.296 167.325 830.902 152.304C829.417 148.167 828.298 136.632 824.303 135.373C822.294 137.8 824.839 178.662 821.147 188.496C818.084 196.488 811.961 202.928 804.135 206.387C791.887 211.824 774.473 210.641 763.659 202.437C757.679 197.901 754.928 193.002 751.977 186.387C729.323 210.962 701.884 210.454 670.886 210.046C646.067 209.719 621.948 213.668 608.867 187.459C606.685 211.151 598.227 230.537 577.769 243.953C556.033 258.208 529.802 260.773 504.733 255.853C480.467 251.091 453.79 233.994 459.618 205.634C461.4 196.871 467.221 190.059 474.547 185.324C469.842 181.008 466.241 175.83 463.071 170.34C459.845 176.378 456.528 180.548 451.588 185.329C438.303 198.131 421.078 206.056 402.718 207.814C396.432 208.4 389.198 208.128 382.823 208.017C382.898 210.369 382.946 212.722 382.968 215.076C382.998 224.456 380.771 232.859 373.853 239.682C359.674 253.669 331.125 253.801 317.035 239.682C306.186 228.811 307.876 213.457 308.02 199.444C294.697 207.355 283.703 208.777 269.976 200.134C261.459 204.592 254.958 207.072 245.254 207.949C225.298 209.751 206.001 206.132 189.629 194.08C185.119 190.76 181.105 186.591 176.765 182.954C140.036 219.22 78.2347 217.565 39.8365 184.768C19.5937 167.501 7.14344 142.811 5.28937 116.259C0.930528 59.6553 46.0704 7.94213 102.423 3.60408Z"/><path fill="#89869F" d="M667.264 25.0255C676.851 25.0175 689.757 24.7264 699.076 25.6486C712.783 26.9033 725.432 33.5475 734.249 44.1234C749.4 62.6645 750.829 92.1048 731.106 108.155C750.976 116.447 751.121 143.706 744.585 160.95C740.036 172.953 731.535 181.158 719.849 186.26C702.657 192.844 683.708 190.614 665.683 190.988C643.647 191.445 627.697 192.872 627.567 165.184C627.454 140.8 627.564 116.394 627.514 92.0667L627.455 66.4773C627.43 54.4484 626.599 42.8537 635.584 33.2946C643.662 24.7007 656.384 25.258 667.264 25.0255Z"/><path fill="#171B30" d="M665.623 122.985C676.618 122.928 695.637 120.884 703.974 128.032C710.938 134.001 709.571 145.89 703.655 152.342C695.574 159.068 676.543 157.082 665.691 157.042C665.739 145.689 665.716 134.337 665.623 122.985Z"/><path fill="#171B30" d="M665.696 60.9093C675.481 60.8654 694.772 59.1393 702.625 65.6333C708.974 70.8831 707.884 80.9721 702.628 87.067C693.885 93.3775 676.604 91.3661 665.767 91.3282C665.608 81.3022 665.714 70.9602 665.696 60.9093Z"/><path fill="#FEAF5D" d="M392.902 65.3554C399.608 64.4236 411.661 66.9499 417.925 69.3832C469.998 89.6179 469.688 163.799 418.828 185.466C399.965 193.503 381.594 191.091 363.038 183.8C362.918 190.147 362.959 196.495 363.16 202.84C363.729 214.143 366.458 228.946 351.274 231.554C343.735 232.849 329.877 231.275 328.528 221.639C327.523 214.457 327.972 205.241 327.98 197.772L327.97 157.143L327.962 104.181C327.962 95.3055 327.801 86.2028 328.12 77.4113C329.02 71.1462 333.833 66.7111 339.806 65.9518C350.197 64.631 355.648 67.2966 363.731 73.2973C374.362 67.2463 380.678 66.2691 392.902 65.3554Z"/><path fill="#171B30" d="M388.572 101.023C403.487 99.6069 416.732 110.54 418.179 125.46C419.625 140.381 408.727 153.657 393.819 155.136C378.866 156.619 365.549 145.675 364.098 130.71C362.648 115.745 373.613 102.443 388.572 101.023Z"/><path fill="#FEAF5D" d="M227.927 65.3303C243.41 62.9955 259.202 66.6293 272.111 75.4972C278.601 65.5347 293.708 61.3273 303.441 69.8686C305.028 71.5709 306.516 74.3687 306.598 76.7017C307.651 106.503 306.902 136.566 306.941 166.4C306.957 178.416 299.596 186.926 287.267 186.64C280.123 186.475 275.088 181.789 270.592 176.844C269.168 178.383 267.257 180.076 265.701 181.531C247.905 195.974 215.236 191.554 197.969 177.9C184.924 167.393 176.559 152.153 174.696 135.501C170.7 100.656 192.35 69.4294 227.927 65.3303Z"/><path fill="#171B30" d="M238.514 101.27C253.448 100.205 266.473 111.33 267.765 126.255C269.057 141.181 258.138 154.381 243.243 155.901C233.404 156.904 223.788 152.526 218.082 144.443C212.375 136.361 211.464 125.829 215.696 116.886C219.929 107.942 228.649 101.974 238.514 101.27Z"/><path fill="#FEAF5D" d="M484.639 65.2415C507.563 63.1939 508.17 70.898 508.087 90.5568L507.911 117.573C507.799 130.542 505.903 150.52 523.818 153.091C564.123 158.875 550.23 114.231 552.618 90.4925C553.391 82.8066 550.54 73.1399 559.071 67.8628C566.586 63.4436 581.318 63.9354 586.225 72.002C589.64 78.0325 588.777 90.6636 588.782 97.7902L588.799 126.091L588.803 163.24C588.798 191.386 590.951 213.17 564.406 230.129C544.802 241.62 501.553 242.872 483.627 226.33C472.977 216.501 478.288 198.001 494.052 198.797C499.459 199.07 503.666 201.645 508.829 202.9C520.847 205.174 537.163 205.531 546.679 196.598C553.66 189.985 553.692 181.009 553.838 172.319C549.469 177.174 541.905 182.965 535.46 184.46C507.581 190.926 483.586 179.172 475.479 151.401C474.368 147.586 473.65 143.668 473.334 139.707C471.859 120.464 473.693 97.9524 473.154 78.4113C472.945 70.829 477.794 67.2009 484.639 65.2415Z"/><path fill="#89869F" d="M908.379 65.0525C943.462 63.8502 972.907 91.2692 974.228 126.369C975.548 161.47 948.246 191.026 913.171 192.466C877.929 193.913 848.218 166.434 846.891 131.165C845.564 95.8965 873.127 66.2605 908.379 65.0525Z"/><path fill="#171B30" d="M905.223 104.42C919.486 101.644 933.306 110.935 936.127 125.197C938.949 139.46 929.709 153.318 915.465 156.189C901.154 159.072 887.225 149.774 884.391 135.445C881.556 121.117 890.894 107.21 905.223 104.42Z"/><path fill="#FEAF5D" d="M101.686 23.0492C120.228 22.2088 132.97 23.6899 150.018 34.5087C164.841 43.9155 179.638 66.4371 155.188 76.7753C145.468 79.6405 135.762 71.445 127.452 67.8499C108.637 59.7103 85.1439 65.5773 73.1745 82.9109C66.4007 92.7701 63.7783 104.901 65.8747 116.68C67.9218 127.995 74.4581 137.998 83.995 144.413C97.9597 153.988 115.047 154.704 130.921 148.677C135.669 146.875 141.325 141.883 146.908 141.098C153.297 140.2 157.043 140.915 162.176 144.479C169.962 152.339 169.925 162.569 162.728 170.809C151.91 183.195 133.3 188.264 117.61 189.966C94.5509 192.468 71.1689 186.242 53.2328 171.338C37.0321 158.031 26.9005 138.732 25.1437 117.833C23.0091 94.6845 30.1641 71.637 45.0308 53.7728C59.5041 36.4349 79.0722 25.0688 101.686 23.0492Z"/><path fill="#89869F" d="M825.228 66.3172C838.923 66.8469 845.863 74.8826 843.725 88.5241C841.084 105.372 824.315 99.3871 814.257 106.382C803.929 113.564 804.911 123.608 804.944 134.583L805.047 161.014C805.124 179.797 805.759 194.988 780.71 190.507C775.311 188.824 770.016 184.672 769.686 178.552C768.037 147.952 769.348 116.976 769.038 86.2979C768.912 73.8283 775.34 66.2691 788.308 66.5736C795.664 66.766 800.1 70.2029 804.764 75.4381C811.722 68.8098 815.729 67.125 825.228 66.3172Z"/></svg>